<svg xmlns="http://www.w3.org/2000/svg" width="52.147" height="50.86" viewBox="0 0 52.147 50.86">
  <path id="github-logo-svgrepo-com" d="M26.921.85a26.077,26.077,0,0,0-8.24,50.816c1.3.238,1.78-.567,1.78-1.258,0-.619-.022-2.258-.035-4.434-7.252,1.575-8.783-3.5-8.783-3.5-1.186-3.012-2.9-3.815-2.9-3.815-2.367-1.617.179-1.584.179-1.584a5.474,5.474,0,0,1,3.994,2.687c2.326,3.984,6.1,2.833,7.589,2.166a5.574,5.574,0,0,1,1.655-3.485c-5.79-.659-11.877-2.9-11.877-12.887a10.077,10.077,0,0,1,2.684-7,9.368,9.368,0,0,1,.256-6.9s2.188-.7,7.169,2.671a24.726,24.726,0,0,1,13.055,0c4.978-3.373,7.163-2.671,7.163-2.671a9.368,9.368,0,0,1,.261,6.9,10.059,10.059,0,0,1,2.679,7c0,10.017-6.1,12.221-11.9,12.866a6.23,6.23,0,0,1,1.769,4.829c0,3.484-.032,6.3-.032,7.152,0,.7.471,1.51,1.793,1.255A26.078,26.078,0,0,0,26.921.85Z" transform="translate(-0.85 -0.85)" fill="#fcfafa" fill-rule="evenodd"/>
</svg>
