<svg xmlns="http://www.w3.org/2000/svg" width="192" height="50.856" viewBox="0 0 192 50.856">
  <g id="linkedin-logo-svgrepo-com" transform="translate(-1.785 -1.783)">
    <path id="Path_1" data-name="Path 1" d="M213.882,5.426a3.691,3.691,0,0,1,3.735-3.643h43.066a3.691,3.691,0,0,1,3.735,3.643V49a3.69,3.69,0,0,1-3.735,3.642H217.617A3.69,3.69,0,0,1,213.882,49V5.425Z" transform="translate(-70.633)" fill="#069"/>
    <path id="Path_2" data-name="Path 2" d="M1.785,48.659h21.09V41.734H9.419V15.319H1.785Zm31.768,0V25.695H25.92V48.659Zm-3.816-26.1a3.98,3.98,0,1,0,.051-7.935,3.978,3.978,0,1,0-.1,7.935h.05Zm7.359,26.1h7.633V35.834a5.208,5.208,0,0,1,.251-1.862A4.177,4.177,0,0,1,48.9,31.181c2.763,0,3.868,2.106,3.868,5.192V48.658H60.4V35.491c0-7.054-3.766-10.336-8.788-10.336a7.6,7.6,0,0,0-6.93,3.87h.051v-3.33H37.1C37.2,27.85,37.1,48.659,37.1,48.659Zm34.068-33.34H63.531v33.34h7.633V41.213l1.908-2.4,5.976,9.847h9.39L78.4,34.4l8.787-9.7H77.994s-6.277,8.676-6.83,9.706Z" transform="translate(0 -4.277)" fill="#fff"/>
    <path id="Path_3" data-name="Path 3" d="M150.772,39.426a18.611,18.611,0,0,0,.251-3c0-5.936-3.013-11.963-10.947-11.963-8.487,0-12.4,6.712-12.4,12.8,0,7.529,4.771,12.23,13.106,12.23a23.732,23.732,0,0,0,8.889-1.517l-1-5.041a20.775,20.775,0,0,1-6.779,1.025c-3.565,0-6.678-1.464-6.929-4.583l15.817.048h0Zm-15.867-5.164c.2-1.96,1.507-4.851,4.771-4.851,3.464,0,4.269,3.087,4.269,4.851h-9.039Zm34.959-18.6V27.206h-.1c-1.105-1.615-3.415-2.693-6.476-2.693-5.876,0-11.048,4.7-11,12.735,0,7.446,4.671,12.3,10.495,12.3a8.634,8.634,0,0,0,7.684-4.018h.15l.3,3.479H177.7c-.1-1.617-.2-4.409-.2-7.152V15.664h-7.633Zm0,22.711a8.474,8.474,0,0,1-.151,1.664,4.491,4.491,0,0,1-4.468,3.576c-3.163,0-5.222-2.547-5.222-6.563,0-3.771,1.759-6.809,5.273-6.809a4.512,4.512,0,0,1,4.469,3.624,6.356,6.356,0,0,1,.1,1.373v3.135Z" transform="translate(-41.923 -4.623)" fill="#fff"/>
    <path id="Path_4" data-name="Path 4" d="M232.814,48.617V25.653h-7.633V48.617h7.634ZM229,22.518a4.253,4.253,0,1,0-.05,0H229Zm8.04,26.1h7.632V35.794a5.231,5.231,0,0,1,.251-1.862,4.177,4.177,0,0,1,3.917-2.792c2.761,0,3.866,2.106,3.866,5.193V48.617h7.632V35.45c0-7.053-3.765-10.336-8.787-10.336a7.6,7.6,0,0,0-6.93,3.868h.051v-3.33h-7.632c.1,2.154,0,22.964,0,22.964Z" transform="translate(-74.246 -4.263)" fill="#fff"/>
  </g>
</svg>
